<?xml version="1.0" encoding="utf-8"?>
<!-- Generator: Adobe Illustrator 17.1.0, SVG Export Plug-In . SVG Version: 6.00 Build 0)  -->
<!DOCTYPE svg PUBLIC "-//W3C//DTD SVG 1.1//EN" "http://www.w3.org/Graphics/SVG/1.1/DTD/svg11.dtd">
<svg version="1.1" id="Layer_1" xmlns="http://www.w3.org/2000/svg" xmlns:xlink="http://www.w3.org/1999/xlink" x="0px" y="0px"
	 viewBox="0 0 136 43" enable-background="new 0 0 136 43" xml:space="preserve">
<path fill="#FFFFFF" d="M1.004,1.183h7.952c1.367,4.739,8.716,11.056,18.496,14.865c6.918,2.694,12.443,8.23,12.846,13.139
	c0.471,5.725-6.024,9.171-15.388,6.547C14.516,32.823,7.573,24.604,10.009,18.809l-9.005-3.085V1.183z"/>
<path fill="#FFFFFF" d="M13.164,41.655H1.004v-9.169C3.95,35.962,8.101,39.173,13.164,41.655"/>
<path fill="#FFFFFF" d="M17.317,1.183h10.692c0.402,0.167,0.805,0.345,1.209,0.535c5.149,2.424,9.276,6.263,9.492,8.942l5.073,2.259
	v10.244c-3.738-4.617-9.414-8.782-15.774-11.412C21.181,8.925,16.219,3.94,17.317,1.183"/>
<path fill="#FFFFFF" d="M33.041,1.183h10.743v9.892C42.058,7.837,38.026,4.154,33.041,1.183"/>
<path fill-rule="evenodd" clip-rule="evenodd" fill="#FFFFFF" d="M59.125,9.616c-0.398-0.192-0.877-0.353-1.437-0.487
	c-0.56-0.133-1.178-0.203-1.854-0.208c-1.549,0.026-2.767,0.437-3.653,1.234c-0.887,0.796-1.339,1.821-1.356,3.076
	c-0.021,0.683,0.211,1.363,0.694,2.038c0.484,0.675,1.342,1.279,2.573,1.812c0.649,0.256,1.097,0.492,1.344,0.708
	c0.246,0.216,0.364,0.474,0.351,0.777c0.001,0.315-0.123,0.555-0.371,0.722c-0.249,0.167-0.628,0.251-1.139,0.253
	c-0.542-0.011-1.098-0.104-1.665-0.281c-0.569-0.177-1.025-0.369-1.371-0.578l-0.695,2.92c0.43,0.259,0.978,0.465,1.643,0.62
	c0.665,0.154,1.368,0.234,2.112,0.238c1.664-0.009,2.964-0.379,3.903-1.112c0.937-0.733,1.414-1.776,1.431-3.129
	c0.001-0.837-0.243-1.587-0.733-2.253c-0.488-0.665-1.295-1.237-2.418-1.714c-0.706-0.291-1.191-0.543-1.457-0.757
	c-0.266-0.213-0.391-0.448-0.378-0.705c0.001-0.294,0.116-0.529,0.346-0.705c0.23-0.175,0.572-0.265,1.025-0.27
	c0.471,0.009,0.919,0.079,1.344,0.212c0.425,0.133,0.781,0.279,1.066,0.438L59.125,9.616z"/>
<path fill-rule="evenodd" clip-rule="evenodd" fill="#FFFFFF" d="M64.559,14.347c0.021-0.376,0.101-0.764,0.239-1.166
	c0.138-0.4,0.351-0.74,0.636-1.02c0.286-0.279,0.66-0.425,1.121-0.437c0.694,0.037,1.169,0.329,1.424,0.876
	c0.256,0.548,0.377,1.13,0.363,1.747H64.559z M70.891,18.914c-0.462,0.153-0.951,0.276-1.468,0.369
	c-0.518,0.092-1.071,0.14-1.661,0.142c-0.867,0.003-1.598-0.183-2.19-0.554c-0.592-0.372-0.922-0.946-0.989-1.721h7.375
	c0.045-0.225,0.076-0.487,0.093-0.788c0.016-0.3,0.023-0.609,0.023-0.926c-0.028-2.209-0.525-3.849-1.491-4.919
	c-0.965-1.069-2.238-1.602-3.819-1.596c-1.301,0.017-2.404,0.346-3.307,0.985c-0.903,0.64-1.589,1.486-2.059,2.541
	c-0.47,1.055-0.706,2.212-0.709,3.474c0.011,2.058,0.569,3.658,1.672,4.799c1.103,1.142,2.688,1.721,4.751,1.738
	c0.784,0,1.547-0.058,2.287-0.177c0.74-0.118,1.416-0.299,2.025-0.541L70.891,18.914z"/>
<path fill-rule="evenodd" clip-rule="evenodd" fill="#FFFFFF" d="M82.169,18.915c-0.255,0.105-0.535,0.185-0.838,0.24
	c-0.304,0.056-0.636,0.084-0.995,0.084c-0.887-0.006-1.611-0.313-2.171-0.922c-0.56-0.609-0.849-1.484-0.867-2.627
	c-0.001-1.071,0.267-1.927,0.803-2.566c0.535-0.639,1.272-0.967,2.212-0.982c0.403,0.003,0.75,0.036,1.04,0.098
	c0.291,0.062,0.54,0.13,0.745,0.203l0.58-3.081c-0.297-0.109-0.671-0.204-1.122-0.287c-0.451-0.083-0.935-0.126-1.452-0.131
	c-1.466,0.012-2.714,0.318-3.745,0.915c-1.031,0.598-1.82,1.414-2.363,2.45c-0.544,1.036-0.819,2.216-0.824,3.544
	c0.023,2.101,0.598,3.724,1.727,4.869c1.129,1.144,2.679,1.723,4.649,1.738c0.648-0.004,1.236-0.054,1.764-0.148
	c0.53-0.094,0.939-0.207,1.226-0.339L82.169,18.915z"/>
<path fill-rule="evenodd" clip-rule="evenodd" fill="#FFFFFF" d="M91.78,14.554l3.988-5.378H91.06l-2.041,3.825
	c-0.136,0.252-0.268,0.518-0.393,0.797c-0.126,0.279-0.258,0.585-0.394,0.919h-0.07V3.541h-4.078v18.686h4.078v-4.01l0.812-1.206
	l2.389,5.216h4.824L91.78,14.554z"/>
<path fill-rule="evenodd" clip-rule="evenodd" fill="#FFFFFF" d="M112.073,15.69c0.002,1.073-0.158,1.972-0.479,2.696
	c-0.321,0.725-0.811,1.103-1.47,1.131c-0.693-0.023-1.205-0.388-1.533-1.096c-0.328-0.707-0.489-1.618-0.487-2.731
	c-0.003-0.616,0.057-1.213,0.182-1.79c0.126-0.577,0.337-1.054,0.632-1.429c0.296-0.376,0.696-0.571,1.205-0.585
	c0.69,0.039,1.189,0.432,1.497,1.181C111.93,13.814,112.079,14.689,112.073,15.69 M110.217,8.921
	c-1.833,0.012-3.321,0.607-4.467,1.787c-1.145,1.18-1.735,2.871-1.77,5.074c0.027,2.116,0.592,3.757,1.692,4.924
	c1.1,1.167,2.569,1.759,4.405,1.775c0.974,0.009,1.926-0.208,2.856-0.65c0.93-0.444,1.7-1.168,2.314-2.176
	c0.612-1.007,0.93-2.352,0.952-4.036c-0.016-1.993-0.545-3.6-1.59-4.82C113.564,9.581,112.1,8.955,110.217,8.921"/>
<path fill="#FFFFFF" d="M101.613,22.248c-0.624,0-0.892-0.381-0.892-0.381l-3.4-4.864l-0.043-0.062
	c-0.384-0.56-0.384-0.893-0.384-1.217V3.541h4.078l0.003,13.775l-0.003,0.106c0.011,0.222,0.127,0.717,0.953,0.747l1.057,0.002
	v4.077L101.613,22.248z"/>
<path fill="#FFFFFF" d="M130.68,9.176h4.011l-3.686,13.052h-3.711l-0.996-4.264c-0.139-0.61-0.267-1.247-0.385-1.911
	c-0.119-0.665-0.23-1.389-0.334-2.172c-0.163,0.784-0.276,1.512-0.408,2.181c-0.132,0.669-0.274,1.303-0.427,1.903l-1.113,4.264
	h-3.709l-3.526-13.052h4.244l0.812,5.286c0.096,0.685,0.194,1.374,0.296,2.067c0.101,0.693,0.188,1.388,0.261,2.084
	c0.179-0.699,0.309-1.399,0.459-2.096c0.15-0.697,0.29-1.366,0.422-2.009l0.892-4.015c0.151-0.915,0.938-1.619,1.889-1.619
	c0.952,0,1.739,0.704,1.868,1.619l0.847,3.853c0.153,0.74,0.3,1.463,0.438,2.168c0.139,0.705,0.255,1.405,0.351,2.099
	c0.139-0.685,0.225-1.385,0.325-2.099c0.099-0.714,0.208-1.436,0.324-2.168L130.68,9.176z"/>
<path fill-rule="evenodd" clip-rule="evenodd" fill="#FFFFFF" d="M60.298,34.287l1.374-0.124c0.065,0.556,0.217,1.013,0.456,1.369
	c0.239,0.355,0.609,0.643,1.112,0.864c0.502,0.219,1.068,0.33,1.696,0.33c0.557,0,1.05-0.084,1.477-0.25
	c0.426-0.167,0.744-0.396,0.953-0.686c0.209-0.291,0.313-0.606,0.313-0.947c0-0.346-0.101-0.647-0.302-0.905
	c-0.201-0.259-0.533-0.475-0.995-0.65c-0.297-0.116-0.953-0.296-1.968-0.54c-1.016-0.243-1.727-0.474-2.134-0.69
	c-0.527-0.278-0.919-0.621-1.177-1.031c-0.258-0.41-0.387-0.869-0.387-1.378c0-0.559,0.158-1.081,0.475-1.566
	c0.317-0.487,0.78-0.855,1.387-1.106c0.608-0.252,1.285-0.378,2.028-0.378c0.819,0,1.541,0.133,2.168,0.397
	c0.626,0.264,1.106,0.651,1.444,1.165c0.337,0.512,0.518,1.094,0.543,1.742l-1.405,0.107c-0.076-0.696-0.331-1.224-0.765-1.58
	c-0.435-0.356-1.078-0.535-1.928-0.535c-0.885,0-1.529,0.163-1.935,0.487c-0.405,0.324-0.606,0.715-0.606,1.172
	c0,0.398,0.143,0.724,0.43,0.98c0.281,0.257,1.017,0.52,2.207,0.789c1.189,0.269,2.004,0.503,2.446,0.703
	c0.642,0.297,1.117,0.672,1.423,1.126c0.306,0.453,0.459,0.976,0.459,1.568c0,0.587-0.168,1.141-0.505,1.659
	c-0.336,0.519-0.819,0.923-1.449,1.212c-0.63,0.288-1.339,0.432-2.127,0.432c-0.999,0-1.836-0.146-2.511-0.436
	c-0.675-0.292-1.205-0.729-1.588-1.315C60.52,35.686,60.318,35.025,60.298,34.287"/>
<path fill-rule="evenodd" clip-rule="evenodd" fill="#FFFFFF" d="M72.126,32.483c0,1.329,0.357,2.376,1.073,3.142
	c0.715,0.764,1.615,1.148,2.694,1.148c1.101,0,2.006-0.387,2.716-1.159c0.711-0.773,1.067-1.868,1.067-3.288
	c0-0.898-0.152-1.682-0.456-2.352c-0.304-0.67-0.749-1.189-1.335-1.557c-0.585-0.369-1.242-0.552-1.97-0.552
	c-1.035,0-1.926,0.355-2.671,1.064C72.497,29.638,72.126,30.823,72.126,32.483 M70.612,32.458c0-1.833,0.493-3.268,1.478-4.304
	c0.986-1.037,2.259-1.556,3.818-1.556c1.021,0,1.941,0.244,2.761,0.73c0.82,0.488,1.445,1.167,1.875,2.038
	c0.429,0.87,0.645,1.858,0.645,2.962c0,1.121-0.226,2.122-0.679,3.006c-0.453,0.883-1.094,1.552-1.924,2.007
	c-0.83,0.454-1.726,0.681-2.687,0.681c-1.041,0-1.971-0.251-2.791-0.753c-0.821-0.502-1.442-1.188-1.864-2.057
	C70.823,34.345,70.612,33.426,70.612,32.458"/>
<path fill-rule="evenodd" clip-rule="evenodd" fill="#FFFFFF" d="M90.304,26.783h1.467v6.385c0,1.11-0.125,1.992-0.377,2.646
	c-0.25,0.653-0.703,1.184-1.357,1.594c-0.655,0.41-1.515,0.615-2.579,0.615c-1.033,0-1.879-0.178-2.536-0.535
	c-0.657-0.357-1.126-0.874-1.407-1.55c-0.281-0.675-0.421-1.599-0.421-2.77v-6.385h1.467v6.381c0,0.961,0.089,1.669,0.267,2.123
	c0.177,0.455,0.483,0.806,0.916,1.052c0.433,0.246,0.962,0.37,1.588,0.37c1.071,0,1.835-0.243,2.291-0.731
	c0.454-0.489,0.683-1.426,0.683-2.814V26.783z"/>
<polygon fill-rule="evenodd" clip-rule="evenodd" fill="#FFFFFF" points="94.206,37.837 94.206,26.783 95.709,26.783 
	101.511,35.462 101.511,26.783 102.915,26.783 102.915,37.837 101.412,37.837 95.611,29.16 95.611,37.837 "/>
<path fill-rule="evenodd" clip-rule="evenodd" fill="#FFFFFF" d="M106.848,36.541h2.358c0.729,0,1.3-0.068,1.714-0.204
	c0.415-0.135,0.744-0.327,0.99-0.574c0.347-0.348,0.617-0.815,0.811-1.401c0.193-0.587,0.289-1.299,0.289-2.134
	c0-1.159-0.19-2.049-0.569-2.671c-0.379-0.622-0.839-1.038-1.382-1.25c-0.392-0.151-1.022-0.227-1.891-0.227h-2.32V36.541z
	 M105.381,37.837V26.783h3.809c0.86,0,1.516,0.053,1.969,0.159c0.632,0.145,1.174,0.409,1.622,0.79
	c0.583,0.493,1.019,1.122,1.308,1.889c0.289,0.766,0.434,1.642,0.434,2.628c0,0.84-0.099,1.584-0.294,2.233
	c-0.197,0.648-0.448,1.184-0.755,1.609c-0.307,0.425-0.643,0.759-1.007,1.002c-0.365,0.245-0.804,0.429-1.32,0.555
	c-0.515,0.126-1.106,0.188-1.776,0.188H105.381z"/>
<path fill-rule="evenodd" clip-rule="evenodd" fill="#FFFFFF" d="M116.063,34.287l1.374-0.124c0.066,0.556,0.217,1.013,0.456,1.369
	c0.239,0.355,0.609,0.643,1.112,0.864c0.502,0.219,1.068,0.33,1.696,0.33c0.558,0,1.05-0.084,1.477-0.25
	c0.427-0.167,0.745-0.396,0.953-0.686c0.209-0.291,0.313-0.606,0.313-0.947c0-0.346-0.101-0.647-0.301-0.905
	c-0.202-0.259-0.534-0.475-0.997-0.65c-0.297-0.116-0.953-0.296-1.969-0.54c-1.016-0.243-1.726-0.474-2.133-0.69
	c-0.526-0.278-0.918-0.621-1.177-1.031c-0.258-0.41-0.387-0.869-0.387-1.378c0-0.559,0.158-1.081,0.475-1.566
	c0.317-0.487,0.78-0.855,1.388-1.106c0.607-0.252,1.284-0.378,2.029-0.378c0.82,0,1.541,0.133,2.167,0.397
	c0.626,0.264,1.107,0.651,1.443,1.165c0.337,0.512,0.518,1.094,0.543,1.742l-1.406,0.107c-0.076-0.696-0.33-1.224-0.765-1.58
	c-0.434-0.356-1.077-0.535-1.928-0.535c-0.885,0-1.53,0.163-1.934,0.487c-0.406,0.324-0.608,0.715-0.608,1.172
	c0,0.398,0.143,0.724,0.431,0.98c0.281,0.257,1.016,0.52,2.206,0.789c1.19,0.269,2.004,0.503,2.446,0.703
	c0.643,0.297,1.116,0.672,1.422,1.126c0.306,0.453,0.459,0.976,0.459,1.568c0,0.587-0.168,1.141-0.504,1.659
	c-0.337,0.519-0.82,0.923-1.449,1.212c-0.631,0.288-1.339,0.432-2.128,0.432c-1,0-1.836-0.146-2.511-0.436
	c-0.675-0.292-1.205-0.729-1.588-1.315C116.285,35.686,116.083,35.025,116.063,34.287"/>
</svg>
